<?xml version="1.0" standalone="no"?>
<!DOCTYPE svg PUBLIC "-//W3C//DTD SVG 20010904//EN"
 "http://www.w3.org/TR/2001/REC-SVG-20010904/DTD/svg10.dtd">
<svg version="1.0" xmlns="http://www.w3.org/2000/svg"
 width="752.000000pt" height="752.000000pt" viewBox="0 0 752.000000 752.000000"
 preserveAspectRatio="xMidYMid meet">
<metadata>
Created by potrace 1.14, written by Peter Selinger 2001-2017
</metadata>
<g transform="translate(0.000000,752.000000) scale(0.100000,-0.100000)"
fill="#000000" stroke="none">
<path d="M3418 7118 c-2 -5 -14 -10 -27 -11 -13 -1 -30 -12 -38 -24 -9 -13
-22 -23 -31 -23 -8 0 -13 -3 -9 -6 3 -4 -3 -24 -14 -45 -11 -22 -17 -39 -13
-39 3 0 -1 -11 -10 -25 -19 -29 -20 -38 -3 -30 6 4 4 0 -5 -8 -10 -8 -18 -20
-18 -26 0 -7 -4 -10 -9 -7 -5 4 -7 -4 -4 -15 4 -15 0 -27 -12 -35 -11 -8 -13
-14 -6 -14 8 0 6 -10 -8 -28 -13 -19 -17 -33 -10 -40 5 -7 6 -10 3 -7 -9 6
-34 -42 -34 -66 0 -11 -5 -19 -11 -19 -5 0 -7 -4 -4 -10 3 -5 1 -10 -6 -10 -7
0 -9 -3 -6 -7 4 -3 1 -13 -6 -21 -10 -13 -9 -15 3 -8 13 7 13 6 0 -6 -8 -7
-17 -22 -18 -33 -2 -11 -9 -23 -15 -27 -6 -3 -12 -14 -14 -22 -2 -9 -4 -23 -6
-32 -2 -8 -9 -19 -15 -23 -6 -4 -10 -17 -7 -29 2 -13 0 -20 -4 -17 -5 2 -14
-16 -21 -40 -7 -25 -16 -48 -21 -51 -4 -2 -6 -11 -2 -19 3 -8 0 -15 -7 -15 -6
0 -9 -4 -5 -9 3 -5 1 -12 -5 -16 -6 -4 -8 -11 -5 -16 4 -5 2 -9 -4 -9 -6 0
-14 -12 -17 -27 -4 -16 -12 -37 -18 -48 -5 -11 -11 -27 -11 -35 0 -8 -6 -25
-13 -36 -6 -12 -8 -24 -5 -28 3 -3 1 -6 -6 -6 -8 0 -11 -7 -7 -15 3 -8 1 -15
-4 -15 -6 0 -10 -9 -10 -20 0 -11 -5 -20 -12 -20 -6 0 -8 -3 -5 -7 4 -3 2 -12
-4 -20 -6 -7 -8 -13 -4 -13 5 0 0 -10 -11 -22 -10 -12 -13 -18 -5 -13 9 5 7
-1 -4 -19 -10 -14 -14 -26 -10 -26 4 0 2 -6 -4 -13 -6 -8 -8 -17 -4 -20 3 -4
1 -7 -5 -7 -7 0 -12 -9 -12 -21 0 -11 -3 -18 -7 -16 -5 3 -9 -6 -10 -20 0 -14
-5 -28 -10 -32 -4 -3 -9 -13 -11 -21 -2 -8 -8 -17 -13 -18 -5 -2 -6 -8 -3 -14
4 -6 1 -14 -6 -18 -6 -4 -13 -19 -13 -33 -1 -14 -5 -23 -9 -20 -7 4 -12 -23
-6 -29 2 -2 -5 -14 -15 -28 -9 -13 -17 -35 -17 -48 0 -13 -4 -21 -9 -18 -5 3
-11 -3 -14 -14 -3 -13 -1 -18 6 -13 7 3 3 -3 -7 -15 -11 -12 -16 -22 -11 -22
4 0 2 -6 -4 -13 -6 -8 -8 -17 -4 -20 3 -4 1 -7 -6 -7 -7 0 -10 -4 -6 -9 3 -5
1 -12 -5 -16 -6 -4 -8 -10 -5 -15 3 -4 -2 -13 -10 -20 -8 -7 -15 -20 -15 -29
0 -9 -6 -23 -12 -30 -11 -11 -10 -12 1 -6 11 6 10 2 -2 -16 -9 -13 -17 -34
-17 -47 0 -15 -4 -21 -11 -16 -8 5 -10 -1 -7 -20 4 -19 0 -31 -14 -40 -10 -7
-16 -20 -13 -28 3 -8 -1 -21 -10 -28 -8 -7 -15 -23 -15 -36 0 -13 -4 -24 -10
-24 -5 0 -10 -9 -10 -20 0 -12 -7 -32 -16 -45 -9 -14 -13 -25 -9 -25 4 0 1 -8
-6 -17 -12 -15 -12 -16 1 -8 8 4 5 -2 -7 -14 -24 -23 -31 -37 -12 -26 6 4 5
-2 -2 -13 -7 -12 -16 -19 -19 -17 -3 2 -6 -22 -5 -53 0 -49 4 -61 28 -83 l28
-26 285 1 c157 0 290 -1 295 -4 13 -9 6 -50 -8 -50 -11 0 -11 -5 -3 -20 10
-18 7 -24 -12 -21 -7 1 -12 -31 -9 -51 0 -5 -4 -8 -10 -8 -5 0 -8 -4 -4 -9 3
-5 0 -13 -6 -16 -5 -4 -8 -13 -5 -21 3 -8 1 -14 -4 -14 -6 0 -10 -6 -10 -12
-1 -7 -9 -31 -19 -52 -11 -22 -17 -46 -14 -53 3 -7 -2 -16 -12 -19 -9 -4 -14
-13 -11 -20 3 -8 2 -14 -2 -14 -12 0 -31 -50 -21 -56 6 -3 1 -14 -10 -23 -11
-10 -18 -21 -14 -24 3 -4 -2 -18 -11 -32 -9 -14 -15 -33 -14 -43 2 -9 -2 -16
-8 -15 -6 1 -11 -8 -10 -20 1 -12 -6 -31 -16 -41 -10 -10 -15 -23 -13 -27 7
-10 -16 -59 -27 -59 -4 0 -8 -11 -8 -24 0 -14 -5 -28 -10 -31 -6 -4 -8 -11 -5
-16 4 -5 1 -9 -5 -9 -6 0 -8 -4 -5 -10 3 -5 2 -10 -3 -10 -6 0 -13 -16 -16
-35 -4 -19 -10 -35 -14 -35 -4 0 -9 -9 -10 -20 -4 -43 -6 -49 -14 -44 -4 3 -8
0 -8 -5 0 -19 -2 -26 -13 -46 -6 -11 -13 -31 -14 -45 -1 -13 -10 -30 -19 -37
-14 -10 -14 -13 -3 -13 11 0 12 -2 1 -9 -8 -4 -14 -12 -14 -17 0 -5 -4 -19 -9
-32 -5 -13 -9 -28 -9 -33 0 -5 -4 -9 -8 -9 -5 0 -9 -7 -10 -15 -1 -8 -3 -22
-4 -30 -1 -8 -4 -15 -8 -15 -7 0 -35 -80 -32 -92 1 -5 -3 -8 -9 -8 -5 0 -8 -4
-4 -9 3 -5 1 -13 -5 -16 -6 -4 -10 -31 -9 -62 2 -45 6 -57 20 -60 11 -3 17 -9
14 -13 -10 -15 45 -18 403 -16 267 1 366 -2 373 -11 13 -14 14 -38 4 -83 -4
-19 -8 -42 -9 -50 0 -8 -6 -21 -13 -28 -6 -7 -10 -21 -8 -32 2 -11 -1 -20 -7
-20 -6 0 -8 -9 -5 -20 3 -11 1 -23 -4 -26 -5 -3 -7 -10 -4 -15 4 -5 2 -9 -4
-9 -5 0 -8 -9 -6 -20 2 -11 -1 -22 -6 -25 -5 -4 -7 -10 -4 -15 3 -5 1 -11 -5
-15 -5 -3 -10 -17 -10 -30 0 -13 -5 -27 -10 -30 -6 -4 -8 -11 -4 -16 3 -5 1
-15 -4 -22 -5 -7 -8 -20 -7 -29 2 -10 -1 -18 -5 -18 -5 0 -7 -11 -4 -25 2 -15
0 -25 -7 -25 -6 0 -9 -7 -5 -15 3 -8 2 -15 -2 -15 -4 0 -9 -8 -10 -17 -4 -38
-8 -52 -21 -67 -9 -11 -10 -16 -2 -16 9 0 8 -6 -1 -22 -7 -13 -11 -27 -10 -31
4 -12 -25 -37 -33 -29 -5 4 -5 1 0 -7 14 -24 13 -83 -2 -88 -7 -3 -10 -9 -7
-14 3 -5 0 -9 -7 -9 -7 0 -9 -3 -6 -7 4 -3 2 -12 -4 -20 -9 -10 -8 -13 2 -13
8 0 5 -6 -7 -15 -10 -8 -16 -15 -12 -15 4 0 2 -15 -3 -32 -6 -18 -13 -49 -16
-68 -3 -19 -9 -43 -14 -52 -5 -9 -9 -28 -9 -43 0 -14 -4 -24 -8 -21 -4 2 -8
-3 -9 -12 -5 -52 -9 -68 -17 -73 -5 -4 -9 -23 -10 -43 0 -20 -5 -36 -10 -36
-4 0 -6 -9 -3 -20 3 -11 2 -20 -2 -20 -4 0 -8 -7 -9 -15 -1 -8 -3 -22 -4 -30
-1 -8 -5 -15 -9 -15 -4 0 -8 -9 -8 -20 -1 -11 -1 -29 -2 -40 0 -11 -4 -20 -8
-20 -4 0 -8 -6 -9 -12 -4 -40 -11 -68 -21 -85 -5 -11 -7 -23 -4 -27 3 -3 1 -6
-6 -6 -7 0 -9 -5 -6 -10 4 -6 1 -17 -5 -25 -10 -12 -10 -15 1 -15 11 -1 11 -3
-1 -13 -8 -7 -15 -23 -15 -37 0 -14 -3 -29 -6 -35 -4 -5 -9 -27 -13 -47 -4
-21 -10 -38 -14 -38 -4 0 -8 -10 -8 -22 -3 -37 -10 -59 -21 -66 -6 -4 -10 -20
-10 -37 0 -16 -5 -43 -12 -59 -6 -15 -10 -33 -9 -40 3 -16 -13 -60 -25 -68 -6
-3 -12 -15 -13 -25 -1 -10 -5 -34 -9 -53 -3 -19 -7 -41 -7 -47 -1 -7 -6 -13
-11 -13 -5 0 -7 -13 -5 -29 2 -17 1 -28 -4 -25 -4 3 -9 -3 -10 -13 -1 -10 -2
-25 -3 -33 -1 -8 -7 -25 -13 -38 -7 -12 -10 -22 -6 -22 3 0 1 -7 -6 -15 -7 -8
-10 -15 -7 -15 4 0 0 -18 -8 -39 -7 -22 -11 -42 -8 -45 4 -3 1 -6 -4 -6 -6 0
-10 -8 -8 -18 1 -9 -3 -23 -9 -31 -8 -12 -8 -13 2 -7 11 6 11 4 3 -10 -14 -27
-30 -80 -27 -96 3 -23 39 -77 48 -72 4 3 8 -2 8 -10 0 -16 13 -20 59 -18 25 1
71 42 71 62 0 5 5 10 11 10 5 0 7 5 4 10 -3 6 1 10 9 10 9 0 15 3 15 8 -4 21
2 42 10 38 5 -3 14 8 20 24 5 17 15 30 21 30 6 0 9 4 5 9 -3 5 -1 12 5 16 6 4
7 11 4 17 -4 6 -3 9 2 6 5 -3 15 0 22 8 7 8 10 14 7 14 -4 0 3 13 15 30 12 17
18 35 14 42 -4 7 -4 10 0 6 10 -9 46 28 46 47 0 8 4 15 9 15 5 0 11 9 14 21 4
14 10 18 19 13 7 -4 10 -4 6 1 -5 5 4 24 19 43 15 20 20 32 12 28 -8 -4 -6 -1
4 7 9 8 17 19 17 26 0 6 4 11 9 11 5 0 13 10 17 22 3 12 12 28 18 35 34 39 36
42 36 70 0 9 3 14 6 10 11 -11 31 17 26 37 -4 14 -2 17 8 11 10 -6 12 -4 7 8
-3 9 0 18 9 21 8 3 20 19 25 36 6 16 15 28 19 25 4 -3 13 9 19 25 13 39 46 82
56 72 3 -4 6 -2 5 3 -5 21 0 36 10 30 6 -4 7 1 3 11 -5 13 -3 15 7 9 10 -6 12
-4 7 7 -3 9 3 24 14 34 10 9 19 21 19 26 0 5 9 19 20 31 12 12 23 32 26 44 4
13 10 23 15 23 5 0 9 7 9 16 0 8 4 13 9 10 5 -3 12 1 15 10 4 10 2 13 -7 8 -6
-4 -2 3 11 15 12 12 22 26 22 32 0 6 4 8 9 4 6 -3 8 4 6 15 -2 11 0 20 5 20 5
0 12 9 15 20 4 11 11 17 17 14 6 -4 8 -2 5 3 -4 6 4 23 17 38 14 16 23 36 21
47 -2 10 2 18 10 18 7 0 17 9 20 20 3 11 11 20 17 20 6 0 8 3 5 7 -4 3 2 13
13 20 11 8 18 19 15 24 -4 5 -1 9 5 9 6 0 8 5 5 10 -3 6 1 10 10 10 9 0 14 4
10 10 -3 5 3 18 15 30 11 11 20 22 20 25 0 6 1 12 5 23 2 4 6 17 10 29 4 13
11 20 16 17 5 -3 9 4 9 15 0 11 9 25 20 31 11 6 18 15 15 19 -3 5 2 12 11 15
8 3 12 10 9 16 -3 5 -1 10 5 10 6 0 9 4 6 9 -4 5 -3 11 1 13 12 5 49 61 57 85
4 13 12 22 18 20 6 -1 12 6 13 16 2 10 15 33 29 52 14 18 26 39 26 45 0 6 4 9
9 6 5 -3 14 7 19 24 6 16 16 35 22 42 32 38 78 113 74 120 -3 4 2 11 10 14 9
3 16 12 16 20 0 8 5 14 11 14 6 0 9 7 5 15 -3 8 -1 15 4 15 6 0 10 7 10 16 0
8 5 12 10 9 9 -5 14 7 12 27 -1 3 5 12 13 18 8 7 15 19 15 26 0 8 8 14 18 14
13 0 14 2 3 9 -10 7 -9 11 7 22 10 8 22 24 26 37 4 12 12 22 17 22 5 0 9 6 9
13 0 7 14 27 30 46 17 18 28 36 25 40 -7 12 30 52 40 43 5 -4 5 -1 1 6 -4 6
-1 19 6 27 33 36 39 46 33 55 -3 6 -2 10 4 10 5 0 13 9 16 20 4 11 11 17 17
14 6 -4 8 -2 5 3 -4 6 2 21 13 33 11 12 17 27 13 33 -3 5 -1 7 4 4 10 -6 25
14 27 36 1 4 7 11 14 16 8 5 13 12 13 17 0 5 9 19 19 31 11 13 17 23 14 23 -4
0 1 11 10 25 9 14 14 25 10 25 -3 0 7 13 23 30 42 44 53 58 53 69 0 5 7 12 16
15 8 3 12 10 9 16 -7 11 25 70 38 70 4 0 5 4 2 10 -3 5 -2 10 3 10 8 0 35 46
36 63 1 5 9 14 18 21 10 7 15 16 11 19 -3 4 -1 7 5 7 7 0 12 6 12 13 0 7 9 19
20 27 13 9 18 21 14 33 -3 11 -2 17 2 14 9 -5 35 17 34 28 -1 22 1 25 12 19 6
-4 8 -3 5 3 -4 6 2 21 13 33 11 13 20 27 20 33 0 5 9 18 21 28 24 21 25 29 7
40 -9 6 -10 11 -2 17 12 8 15 42 3 42 -4 0 -5 9 -2 20 4 14 0 20 -13 20 -9 0
-14 3 -11 7 11 10 -37 30 -54 22 -8 -4 -21 -4 -29 1 -8 5 -22 4 -32 -1 -10 -5
-18 -6 -18 -2 0 10 -83 9 -98 -1 -7 -4 -12 -3 -12 2 0 5 -12 7 -27 5 -16 -2
-34 -4 -40 -3 -7 0 -26 0 -43 0 -16 0 -36 0 -42 0 -7 -1 -25 1 -40 3 -16 2
-28 0 -28 -6 0 -8 -3 -8 -11 0 -6 6 -23 8 -44 3 -19 -4 -36 -5 -39 -2 -9 9
-51 8 -63 -1 -8 -6 -13 -6 -13 1 0 5 -6 10 -12 9 -42 -1 -46 3 -39 36 5 17 16
47 25 65 10 19 15 36 12 39 -3 4 1 11 10 17 8 6 16 21 17 34 0 12 5 22 10 22
4 0 5 4 2 10 -3 6 -1 10 5 10 7 0 10 7 7 15 -4 8 -2 17 4 20 5 4 7 10 4 15 -3
4 2 11 11 14 8 3 13 10 9 16 -3 5 1 21 10 34 9 14 14 30 10 35 -3 6 3 19 13
29 10 10 17 23 14 30 -2 6 2 21 9 34 7 13 13 28 14 33 0 6 5 19 12 30 6 11 11
22 11 25 0 3 6 19 13 35 7 17 13 32 14 35 1 3 7 18 13 33 7 16 9 33 6 39 -4 7
-2 8 4 4 7 -4 12 -4 13 1 0 4 3 17 5 28 3 11 6 26 6 33 1 6 5 12 10 12 4 0 8
9 8 19 0 11 5 23 10 26 6 4 8 10 5 15 -3 4 2 11 11 14 9 4 14 13 10 21 -3 8
-1 15 5 15 6 0 7 5 4 10 -3 6 1 10 10 10 12 0 14 4 7 17 -7 12 -4 22 9 36 15
17 16 23 6 36 -8 9 -8 12 -1 8 11 -6 26 13 29 38 1 6 7 23 13 38 7 16 12 40
12 55 0 21 2 24 10 12 8 -13 10 -12 11 5 1 11 1 26 0 34 -2 7 2 10 8 6 6 -3
11 0 11 7 0 17 43 122 52 126 4 2 5 9 2 17 -3 7 2 24 11 38 24 37 11 138 -16
122 -5 -4 -8 -1 -7 6 6 25 -54 43 -149 45 -61 1 -90 -2 -86 -9 4 -6 1 -7 -8
-1 -22 13 -43 14 -51 1 -5 -7 -8 -8 -8 -1 0 11 -118 13 -136 2 -6 -4 -14 -4
-18 0 -13 12 -136 11 -129 -2 3 -6 0 -6 -7 1 -17 16 -22 44 -10 58 5 7 11 20
13 31 2 10 9 29 15 42 7 12 10 22 6 22 -3 0 -1 7 6 15 7 8 9 15 4 15 -5 0 -1
5 9 11 13 8 15 14 7 29 -7 13 -7 21 2 26 7 4 8 3 4 -4 -4 -7 -5 -12 -2 -12 5
0 37 57 36 62 -3 9 13 37 19 34 4 -3 6 11 5 30 -2 20 1 32 6 29 9 -5 12 8 9
31 0 4 4 10 11 14 6 4 13 16 15 26 2 10 4 20 5 22 2 1 3 6 4 11 0 5 4 13 9 17
4 4 7 16 7 26 0 10 5 18 10 18 6 0 10 7 10 16 0 8 5 25 12 37 7 12 13 31 13
42 1 11 5 19 11 18 9 -1 14 21 17 69 1 9 5 14 9 12 4 -3 8 4 8 15 0 11 7 26
15 35 8 8 15 23 15 34 0 10 3 22 7 26 4 3 8 15 10 26 1 10 12 35 23 55 11 20
18 40 15 45 -3 4 0 10 5 12 6 2 12 13 13 26 0 12 5 22 10 22 5 0 7 9 4 20 -3
11 -2 18 3 15 8 -5 21 24 25 57 1 10 8 24 15 33 7 8 9 15 5 15 -4 0 -2 7 5 15
7 8 9 15 5 15 -5 0 1 8 12 18 11 9 18 23 16 30 -3 6 0 12 5 12 5 0 13 7 16 16
4 9 2 13 -5 8 -6 -3 -4 4 4 17 8 13 13 32 12 42 -2 9 1 15 6 11 5 -3 10 2 10
10 2 17 5 33 9 41 11 21 3 72 -12 83 -10 7 -15 18 -12 24 4 7 2 8 -5 4 -6 -4
-14 -1 -17 8 -3 8 -14 13 -24 11 -10 -2 -21 3 -24 12 -5 12 -9 13 -21 3 -12
-10 -15 -10 -15 0 0 10 -3 10 -15 0 -12 -10 -15 -10 -15 0 0 10 -3 10 -15 0
-12 -10 -15 -10 -15 0 0 10 -3 10 -15 0 -12 -10 -15 -10 -15 0 0 10 -3 10 -15
0 -8 -7 -15 -9 -15 -4 0 5 -11 9 -25 9 -14 0 -25 -4 -25 -10 0 -5 -5 -3 -10 5
-8 12 -10 12 -10 1 0 -10 -3 -11 -14 -2 -11 9 -15 9 -19 -1 -4 -10 -7 -10 -15
1 -7 9 -12 10 -16 2 -4 -6 -12 -8 -18 -5 -17 10 -89 11 -95 1 -3 -5 -9 -3 -13
4 -7 10 -12 10 -23 0 -12 -9 -16 -9 -20 1 -4 10 -6 10 -6 -1 -1 -11 -4 -11
-16 -1 -12 10 -15 10 -15 0 0 -10 -3 -10 -15 0 -12 10 -15 10 -15 -1 0 -11 -2
-11 -10 1 -8 12 -10 12 -10 1 0 -10 -3 -11 -14 -2 -11 9 -15 9 -19 -1 -4 -10
-7 -10 -15 1 -7 9 -12 10 -16 2 -4 -6 -12 -8 -18 -5 -17 10 -89 11 -95 1 -3
-5 -9 -3 -13 4 -7 10 -11 10 -24 0 -13 -11 -16 -11 -16 0 0 12 -2 12 -9 0 -6
-10 -10 -10 -16 -1 -6 9 -10 9 -17 -1 -8 -11 -11 -11 -15 -1 -4 10 -8 10 -19
1 -11 -9 -14 -9 -14 1 0 10 -3 10 -15 0 -12 -10 -15 -10 -15 0 0 10 -3 10 -15
0 -12 -10 -15 -10 -15 0 0 10 -3 10 -15 0 -11 -9 -15 -9 -15 -1 0 9 -5 9 -20
1 -15 -8 -20 -8 -20 1 0 8 -4 8 -15 -1 -12 -10 -15 -10 -15 0 0 10 -3 10 -15
0 -12 -10 -15 -10 -15 0 0 10 -3 10 -15 0 -12 -10 -15 -10 -15 0 0 10 -3 10
-15 0 -9 -8 -15 -8 -15 -2 0 7 -10 8 -29 2 -21 -6 -31 -5 -35 3 -3 8 -5 8 -5
-1 -1 -8 -6 -10 -13 -6 -18 11 -47 12 -50 2z"/>
</g>
</svg>
